<svg width="20" height="20" viewBox="0 0 20 20" fill="none" xmlns="http://www.w3.org/2000/svg">
<g clip-path="url(#clip0)">
<path d="M19.6532 3.11655C19.3679 2.77058 18.9451 2.5723 18.4932 2.5723H6.88871C6.65102 2.5723 6.45813 2.76519 6.45813 3.00288C6.45813 3.24058 6.65102 3.43347 6.88871 3.43347H18.493C18.6895 3.43347 18.8657 3.5155 18.9886 3.66448C19.1135 3.81604 19.1634 4.01585 19.1258 4.21026L17.4049 12.815C17.3381 13.1225 17.0774 13.3371 16.7708 13.3371H7.19938L3.24763 1.4396C3.03404 0.82945 2.45576 0.41953 1.7935 0.41953C1.7933 0.41953 1.79307 0.41953 1.79283 0.41953C1.23111 0.438905 0.661467 0.43871 0.521936 0.429217C0.38307 0.399061 0.232992 0.437811 0.125375 0.545467C-0.0427886 0.71363 -0.0427886 0.986169 0.125375 1.15433C0.258656 1.28761 0.303656 1.33261 1.80771 1.2805C2.08974 1.2805 2.34185 1.45878 2.43252 1.71753L6.48008 13.9035C6.53864 14.0794 6.70313 14.1982 6.88871 14.1982H16.7708C17.486 14.1982 18.0927 13.7046 18.2479 12.9909L19.9709 4.37663C20.0579 3.92628 19.9424 3.46706 19.6532 3.11655Z" fill="#7F8380"/>
<path d="M16.5778 16.5668H8.741C8.47596 16.5668 8.22686 16.3842 8.13709 16.128L7.29745 13.6305C7.22167 13.4051 6.97686 13.2835 6.7521 13.3597C6.52667 13.4352 6.40546 13.6796 6.48124 13.905L7.3226 16.4074C7.53639 17.0177 8.10627 17.4277 8.74096 17.4277H16.5777C16.8154 17.4277 17.0083 17.235 17.0083 16.9973C17.0083 16.7596 16.8155 16.5668 16.5778 16.5668Z" fill="#7F8380"/>
<path d="M9.04241 16.5665C8.21135 16.5665 7.53534 17.2428 7.53534 18.0736C7.53534 18.9044 8.21135 19.5807 9.04241 19.5807C9.87346 19.5807 10.5495 18.9044 10.5495 18.0736C10.5495 17.2428 9.87346 16.5665 9.04241 16.5665ZM9.04241 18.7195C8.68631 18.7195 8.39651 18.4297 8.39651 18.0736C8.39651 17.7175 8.68631 17.4277 9.04241 17.4277C9.3985 17.4277 9.6883 17.7175 9.6883 18.0736C9.6883 18.4297 9.3985 18.7195 9.04241 18.7195Z" fill="#7F8380"/>
<path d="M16.5778 16.5665C15.747 16.5665 15.0707 17.2428 15.0707 18.0736C15.0707 18.9044 15.747 19.5807 16.5778 19.5807C17.4086 19.5807 18.0848 18.9044 18.0848 18.0736C18.0848 17.2428 17.4086 16.5665 16.5778 16.5665ZM16.5778 18.7195C16.2217 18.7195 15.9319 18.4297 15.9319 18.0736C15.9319 17.7175 16.2217 17.4277 16.5778 17.4277C16.9339 17.4277 17.2237 17.7175 17.2237 18.0736C17.2237 18.4297 16.9339 18.7195 16.5778 18.7195Z" fill="#7F8380"/>
</g>
<defs>
<clipPath id="clip0">
<rect width="20" height="20" fill="white"/>
</clipPath>
</defs>
</svg>
