<svg xmlns="http://www.w3.org/2000/svg" xmlns:xlink="http://www.w3.org/1999/xlink" version="1.1" fill="#52b260" xml:space="preserve" width="492.004" height="492.004" style=""><rect id="backgroundrect" width="100%" height="100%" x="0" y="0" fill="none" stroke="none"/>
















<g class="currentLayer" style=""><title>Layer 1</title><g id="svg_1" class="selected">
	<g id="svg_2">
		<path d="M443.73548187882335,205.8909010965159 L117.8987325829763,-141.31328641750346 C110.36252627629995,-149.35018545251262 100.30234566154246,-153.77777466043403 89.57545485219748,-153.77777466043403 s-20.787071424102482,4.427589207921394 -28.32327773077882,12.464488242930576 l-23.995614235554733,25.563301587282552 c-15.61411464645499,16.65737716332605 -15.61411464645499,43.730372491991545 0,60.36237665126073 L310.86966452889,236.17358143837367 l-273.9166928923471,291.8846954190588 c-7.5362063066763305,8.036899035009181 -11.697192253253547,18.75064999801668 -11.697192253253547,30.174845074616155 c0,11.436881578627899 4.160985946577217,22.150632541635407 11.697192253253547,30.1938748276588 l23.995614235554733,25.556958336268337 c7.5421590762708615,8.036899035009181 17.596386921433837,12.464488242930576 28.32327773077882,12.464488242930576 s20.787071424102482,-4.427589207921394 28.32327773077882,-12.464488242930576 L443.73548187882335,266.4626050312457 c7.554064615459926,-8.062272039066038 11.703145022848078,-18.826769010187252 11.679333944469956,-30.26999383982937 C455.43862690167146,224.7049836046748 451.28954649428334,213.9468298845677 443.73548187882335,205.8909010965159 z" id="svg_3"/>
	</g>
</g><g id="svg_4">
</g><g id="svg_5">
</g><g id="svg_6">
</g><g id="svg_7">
</g><g id="svg_8">
</g><g id="svg_9">
</g><g id="svg_10">
</g><g id="svg_11">
</g><g id="svg_12">
</g><g id="svg_13">
</g><g id="svg_14">
</g><g id="svg_15">
</g><g id="svg_16">
</g><g id="svg_17">
</g><g id="svg_18">
</g></g></svg>