<svg xmlns="http://www.w3.org/2000/svg" xmlns:xlink="http://www.w3.org/1999/xlink" version="1.1" fill="#f2faf3" xml:space="preserve" width="492.004" height="492.004" style=""><rect id="backgroundrect" width="100%" height="100%" x="0" y="0" fill="none" stroke="none"/>
















<g class="currentLayer" style=""><title>Layer 1</title><g id="svg_1" class="selected">
	<g id="svg_2">
		<path d="M231.24858600507645,223.8909010965159 L561.3891061032541,-123.31328641750346 C569.0248533755616,-131.35018545251262 579.2179125305374,-135.77777466043403 590.0864880318788,-135.77777466043403 s21.061634656317235,4.427589207921394 28.697381928624683,12.464488242930576 l24.312557073200107,25.563301587282552 c15.820351576036677,16.65737716332605 15.820351576036677,43.730372491991545 0,60.36237665126073 L365.86934360215565,254.17358143837367 l277.5346846249822,291.8846954190588 c7.6357472723074515,8.036899035009181 11.851693041140713,18.75064999801668 11.851693041140713,30.174845074616155 c0,11.436881578627899 -4.215945768833261,22.150632541635407 -11.851693041140713,30.1938748276588 l-24.312557073200107,25.556958336268337 c-7.641778668257141,8.036899035009181 -17.82880642728344,12.464488242930576 -28.697381928624683,12.464488242930576 s-21.061634656317235,-4.427589207921394 -28.697381928624683,-12.464488242930576 L231.24858600507645,284.4626050312457 c-7.6538414601565234,-8.062272039066038 -11.857724437090402,-18.826769010187252 -11.833598853291646,-30.26999383982937 C219.39086156798606,242.7049836046748 223.59474454491988,231.9468298845677 231.24858600507645,223.8909010965159 z" id="svg_3"/>
	</g>
</g><g id="svg_4">
</g><g id="svg_5">
</g><g id="svg_6">
</g><g id="svg_7">
</g><g id="svg_8">
</g><g id="svg_9">
</g><g id="svg_10">
</g><g id="svg_11">
</g><g id="svg_12">
</g><g id="svg_13">
</g><g id="svg_14">
</g><g id="svg_15">
</g><g id="svg_16">
</g><g id="svg_17">
</g><g id="svg_18">
</g></g></svg>